<svg width="153" height="33" viewBox="0 0 153 33" fill="none" xmlns="http://www.w3.org/2000/svg">
	<path
		d="M21.9693 32.2191C15.4983 29.6803 9.94168 25.2517 6.02316 19.5102C2.10464 13.7686 0.00580942 6.98019 0 0.0289249L34.6101 0L21.9693 32.2191Z"
		fill="url(#paint0_linear_112_110)" fill-opacity="0.9" />
	<path
		d="M41.4073 32.2191C34.9316 29.6785 29.3718 25.2455 25.4529 19.4982C21.5341 13.751 19.4379 6.9562 19.4379 0L54.048 5.51759e-06L41.4073 32.2191Z"
		fill="url(#paint1_linear_112_110)" />
	<path d="M51.6776 11.754V15.3743H55.8324V11.754H51.6776ZM51.6776 16.8808V31.192H55.8324V16.8808H51.6776Z"
		fill="#FFFFFF" />
	<path
		d="M57.414 26.1624C57.414 30.7303 62.5165 31.4349 68.032 31.4349C73.5475 31.4349 77.1921 30.7303 77.1921 26.6969C77.1921 22.8822 73.3774 22.7365 67.789 22.3234C62.8566 21.9589 62.1034 21.8132 62.1034 20.9142C62.1034 20.088 63.2211 19.7965 67.1573 19.7965C71.0206 19.7965 72.527 20.088 72.527 21.2786H76.7062C76.7062 17.3424 72.7943 16.6378 67.4003 16.6378C62.2978 16.6378 57.9243 17.3424 57.9243 21.0842C57.9243 24.5345 61.01 25.0204 67.3031 25.3849C72.3326 25.7007 73.013 25.7736 73.013 26.867C73.013 27.9847 72.284 28.2763 67.789 28.2763C63.1482 28.2763 61.5689 27.6931 61.5689 26.1624H57.414Z"
		fill="#FFFFFF" />
	<path
		d="M94.0613 11.754V19.1161C92.5063 17.4882 90.0037 16.6378 86.9179 16.6378C82.3257 16.6378 78.3895 18.5816 78.3895 24.0485C78.3895 29.5154 82.3257 31.4349 86.9179 31.4349C90.0037 31.4349 92.5063 30.5845 94.0613 28.9566V31.192H98.2162V11.754H94.0613ZM88.3029 27.9604C84.5854 27.9604 82.5687 26.867 82.5687 24.0485C82.5687 21.2057 84.5854 20.1123 88.3029 20.1123C92.0204 20.1123 94.0613 21.2057 94.0613 24.0485C94.0613 26.867 92.0204 27.9604 88.3029 27.9604Z"
		fill="#FFFFFF" />
	<path
		d="M109.705 31.4349C115.61 31.4349 119.619 29.2968 119.619 24.0485C119.619 18.776 115.61 16.6378 109.705 16.6378C103.777 16.6378 99.7921 18.776 99.7921 24.0485C99.7921 29.2968 103.777 31.4349 109.705 31.4349ZM109.705 27.9604C105.842 27.9604 103.947 27.0128 103.947 24.0485C103.947 21.0599 105.842 20.1123 109.705 20.1123C113.544 20.1123 115.44 21.0599 115.44 24.0485C115.44 27.0128 113.544 27.9604 109.705 27.9604Z"
		fill="#FFFFFF" />
	<path
		d="M146.032 16.6378C142.485 16.6378 139.934 17.877 138.087 19.2619C136.994 17.2695 134.953 16.6378 132.79 16.6378C129.243 16.6378 126.91 17.9742 125.355 19.2133V16.8808H121.2V31.192H125.355V22.7608C126.546 21.473 128.878 20.2338 131.284 20.2338C134.248 20.2338 134.758 21.8132 134.758 24.8503V31.192H138.913L138.962 23.1738C138.962 22.9065 138.962 22.6636 138.938 22.4206C140.201 21.2786 142.339 20.2338 144.526 20.2338C147.49 20.2338 148 21.8132 148 24.8503V31.192H152.155L152.204 23.1738C152.155 17.9985 149.24 16.6378 146.032 16.6378Z"
		fill="#FFFFFF" />
	<defs>
		<linearGradient id="paint0_linear_112_110" x1="28.1211" y1="-33.9964" x2="41.0992" y2="33.9963"
			gradientUnits="userSpaceOnUse">
			<stop stop-color="#FFFFFF" />
			<stop offset="1" stop-color="#FFFFFF" stop-opacity="0.71" />
		</linearGradient>
		<linearGradient id="paint1_linear_112_110" x1="47.559" y1="-33.9964" x2="60.5371" y2="33.9963"
			gradientUnits="userSpaceOnUse">
			<stop stop-color="#FFFFFF" stop-opacity="0.67" />
			<stop offset="1" stop-color="#FFFFFF" stop-opacity="0.92" />
		</linearGradient>
	</defs>
</svg>